<svg width="9" height="14" viewBox="0 0 9 14" fill="none" xmlns="http://www.w3.org/2000/svg">
<g clip-path="url(#clip0_79_2516)">
<path d="M8.86642 9.73618C8.80833 11.0612 8.18117 12.2255 7.23233 13.0012C6.41904 13.6663 5.36942 14.0457 4.23998 13.9955C1.7926 13.8872 -0.103501 11.8042 0.00438481 9.34337C0.00636082 9.29792 0.011103 9.19122 0.0277008 9.03078C0.334365 9.79032 0.827161 10.4938 1.60844 10.9656C1.58355 10.9447 -0.0959923 9.51528 1.00697 5.98904C1.20022 5.37057 1.70289 4.16209 2.29804 3.07059C1.77916 5.54169 2.37668 7.05722 3.02123 6.76399C3.59069 6.50515 3.18958 5.22396 3.3935 3.50411C3.62863 1.51712 4.84422 0.0118555 4.85371 0.000395185V0C4.5012 2.922 6.79802 4.21623 6.06534 7.65869C6.9636 5.51363 6.41034 3.01803 6.41034 3.01803C8.05985 5.87206 7.26908 9.82708 6.48306 10.6186C7.9401 9.77175 8.31553 7.84443 8.38548 6.24788C8.71664 7.69031 8.92451 8.4048 8.86642 9.73618Z" fill="#E7C08D"/>
<path d="M8.86642 9.73618C8.80833 11.0612 8.18117 12.2255 7.23233 13.0012C6.41904 13.6663 5.36942 14.0457 4.23998 13.9955C1.7926 13.8872 -0.103501 11.8042 0.00438481 9.34337C0.00636082 9.29792 0.011103 9.19122 0.0277008 9.03078C0.334365 9.79032 0.827161 10.4938 1.60844 10.9656C1.58355 10.9447 -0.0959923 9.51528 1.00697 5.98904C1.20022 5.37057 1.70289 4.16209 2.29804 3.07059C1.77916 5.54169 2.37668 7.05722 3.02123 6.76399C3.59069 6.50515 3.18958 5.22396 3.3935 3.50411C3.62863 1.51712 4.84422 0.0118555 4.85371 0.000395185V0C4.5012 2.922 6.79802 4.21623 6.06534 7.65869C6.9636 5.51363 6.41034 3.01803 6.41034 3.01803C8.05985 5.87206 7.26908 9.82708 6.48306 10.6186C7.9401 9.77175 8.31553 7.84443 8.38548 6.24788C8.71664 7.69031 8.92451 8.4048 8.86642 9.73618Z" fill="#E7C08D"/>
<path d="M3.37729 10.4953C3.32355 11.328 3.58635 12.312 4.84778 12.9241C4.84778 12.9241 2.9003 11.6113 4.34036 9.24613C5.41803 7.47609 4.88532 6.36167 4.43797 4.61574C3.83808 2.27229 4.84462 0.0252629 4.85371 0.000366211C4.84422 0.0118266 3.62863 1.51709 3.3935 3.50408C3.18958 5.22393 3.59069 6.50512 3.02123 6.76397C2.37668 7.05719 1.77916 5.54166 2.29804 3.07056C1.70289 4.16206 1.20022 5.37054 1.00697 5.98901C-0.0959922 9.51525 1.58355 10.9446 1.60844 10.9656C0.827161 10.4937 0.334365 9.7903 0.0277008 9.03075C0.011103 9.1912 0.00636082 9.2979 0.00438481 9.34334C-0.103501 11.8042 1.7926 13.8872 4.23998 13.9955C5.36942 14.0457 6.41904 13.6663 7.23233 13.0012C3.95782 15.1755 2.70706 12.3985 3.37729 10.4953Z" fill="#B2283E"/>
</g>
<defs>
<clipPath id="clip0_79_2516">
<rect width="9" height="14" fill="white"/>
</clipPath>
</defs>
</svg>
